HIERARCHY
ROOT Hips
{
	OFFSET 0.00000 0.00000 0.00000
	CHANNELS 6 Xposition Yposition Zposition Zrotation Yrotation Xrotation 
	JOINT LHipJoint
	{
		OFFSET 0 0 0
		CHANNELS 3 Zrotation Yrotation Xrotation
		JOINT LeftHip
		{
			OFFSET 1.77779 -1.88989 0.48267
			CHANNELS 3 Zrotation Yrotation Xrotation
			JOINT LeftKnee
			{
				OFFSET 2.53442 -6.96327 0.00000
				CHANNELS 3 Zrotation Yrotation Xrotation
				JOINT LeftAnkle
				{
					OFFSET 2.71068 -7.44755 0.00000
					CHANNELS 3 Zrotation Yrotation Xrotation
					JOINT LeftToe
					{
						OFFSET 0.17992 -0.49431 2.22524
						CHANNELS 3 Zrotation Yrotation Xrotation
						End Site
						{
							OFFSET 0.00000 -0.00000 1.14687
						}
					}
				}
			}
		}
	}
	JOINT RHipJoint
	{
		OFFSET 0 0 0
		CHANNELS 3 Zrotation Yrotation Xrotation
		JOINT RightHip
		{
			OFFSET -1.58469 -1.88989 0.48267
			CHANNELS 3 Zrotation Yrotation Xrotation
			JOINT RightKnee
			{
				OFFSET -2.60386 -7.15404 0.00000
				CHANNELS 3 Zrotation Yrotation Xrotation
				JOINT RightAnkle
				{
					OFFSET -2.73334 -7.50979 0.00000
					CHANNELS 3 Zrotation Yrotation Xrotation
					JOINT RightToe
					{
						OFFSET -0.25618 -0.70384 2.21822
						CHANNELS 3 Zrotation Yrotation Xrotation
						End Site
						{
							OFFSET -0.00000 -0.00000 1.16381
						}
					}
				}
			}
		}
	}
	JOINT lowerback
	{
		OFFSET 0 0 0
		CHANNELS 3 Zrotation Yrotation Xrotation
		JOINT Chest
		{
			OFFSET 0.03410 2.01612 -0.22230
			CHANNELS 3 Zrotation Yrotation Xrotation
			JOINT Chest2
			{
				OFFSET 0.03465 2.03012 0.00937
				CHANNELS 3 Zrotation Yrotation Xrotation
				JOINT lowerneck
				{
					OFFSET 0 0 0
					CHANNELS 3 Zrotation Yrotation Xrotation
					JOINT Neck
					{
						OFFSET -0.00219 1.70459 0.20857
						CHANNELS 3 Zrotation Yrotation Xrotation
						JOINT Head
						{
							OFFSET 0.02518 1.72339 -0.22179
							CHANNELS 3 Zrotation Yrotation Xrotation
							End Site
							{
								OFFSET 0.00282 1.74122 -0.09823
							}
						}
					}
				}
				JOINT LeftCollar
				{
					OFFSET 0 0 0
					CHANNELS 3 Zrotation Yrotation Xrotation
					JOINT LeftShoulder
					{
						OFFSET 3.36358 1.00547 -0.37661
CHANNELS 3 Zrotation Xrotation Yrotation
						JOINT LeftElbow
						{
OFFSET 0 -5.065070 0.000000
CHANNELS 3 Zrotation Xrotation Yrotation
							JOINT LeftWrist
							{
OFFSET 0 -3.601960 0.000000
CHANNELS 3 Zrotation Xrotation Yrotation
								JOINT lhand
								{
									OFFSET 0 0 0
CHANNELS 3 Zrotation Xrotation Yrotation
									JOINT LFingers
									{
OFFSET 0 -0.450350 0.000000
CHANNELS 3 Zrotation Xrotation Yrotation
										End Site
										{
OFFSET 0 -0.363080 0.000000
										}
									}
								}
								JOINT LThumb
								{
OFFSET 0 0.000000 0.000000
CHANNELS 3 Zrotation Xrotation Yrotation
									End Site
									{
OFFSET 0 -0.368620 0.368620
									}
								}
							}
						}
					}
				}
				JOINT RightCollar
				{
					OFFSET 0 0 0
					CHANNELS 3 Zrotation Yrotation Xrotation
					JOINT RightShoulder
					{
						OFFSET -3.50159 0.80383 -0.71526
CHANNELS 3 Zrotation Xrotation Yrotation
						JOINT RightElbow
						{
OFFSET 0 -5.363940 0.000000
CHANNELS 3 Zrotation Xrotation Yrotation
							JOINT RightWrist
							{
OFFSET 0 -3.580350 0.000000
CHANNELS 3 Zrotation Xrotation Yrotation
								JOINT rhand
								{
									OFFSET 0 0 0
CHANNELS 3 Zrotation Xrotation Yrotation
									JOINT RFingers
									{
OFFSET 0 -0.663750 0.000000
CHANNELS 3 Zrotation Xrotation Yrotation
										End Site
										{
OFFSET 0 -0.535130 0.000000
										}
									}
								}
								JOINT RThumb
								{
OFFSET 0 0.000000 0.000000
CHANNELS 3 Zrotation Xrotation Yrotation
									End Site
									{
OFFSET 0 -0.543300 0.543300
									}
								}
							}
						}
					}
				}
			}
		}
	}
}
MOTION
Frames: 11
Frame Time: 0.008333333333333333
0.099900 16.991700 -33.213300 -5.034700 -2.524600 2.059500 0.000000 0.000000 0.000000 -8.025000 -1.011300 -23.094500 25.055200 19.375900 104.929600 -0.087700 -9.360000 11.659300 0.017600 -0.857000 -2.355400 0.000000 0.000000 0.000000 33.562100 13.624100 -19.185300 -7.801600 -15.971400 51.845000 -1.607200 -3.226000 -25.292200 -0.030900 1.135300 -3.121200 3.988000 0.067700 20.947600 2.960400 1.388900 0.519800 0.589500 0.528500 -11.200300 -1.651500 -2.907100 -20.405100 1.137800 -3.674800 13.647600 0.192700 -1.725700 7.588400 0.000000 0.000000 0.000000 1.247600 18.300400 -43.994400 113.581700 -57.790800 80.270900 19.263700 -32.527400 -6.730900 0.000000 0.000000 0.000000 -7.125000 0.000000 0.000000 -6.360200 37.039700 -1.251800 0.000000 0.000000 0.000000 -4.362400 11.170700 56.871500 -125.145400 -54.775200 -89.902900 -32.620200 -41.169500 -37.457600 0.000000 0.000000 0.000000 7.125000 0.000000 -0.000000 0.859600 -12.306800 1.023200
0.092627 16.981985 -33.100699 -5.035417 -2.851758 2.257547 0.000000 0.000000 0.000000 -7.853365 -0.707528 -24.023681 25.112562 19.361141 105.102748 -0.093195 -9.288463 11.416022 0.013884 -0.733065 -2.014731 0.000000 0.000000 0.000000 33.663871 13.886808 -18.776121 -7.804414 -15.973524 51.855220 -1.634726 -3.306562 -25.529718 -0.046349 1.344893 -3.699015 3.888592 0.314402 20.746103 2.881670 1.661695 0.657352 0.480695 0.664327 -10.927876 -1.451702 -2.995545 -21.047311 1.140799 -3.847789 13.710483 0.130056 -1.791848 7.713901 0.000000 0.000000 0.000000 1.580943 18.203620 -44.195818 113.569569 -57.793189 80.260627 19.273389 -32.659192 -6.867842 0.000000 0.000000 0.000000 -7.125000 0.000000 0.000000 -6.369252 37.184101 -1.230883 0.000000 0.000000 0.000000 -4.171335 10.412119 56.838824 -125.325529 -54.714599 -90.049822 -32.764149 -41.415937 -38.052085 0.000000 0.000000 0.000000 7.125000 0.000000 0.000000 0.945285 -12.961116 1.135190
0.085354 16.972270 -32.988099 -5.036133 -3.178916 2.455593 0.000000 0.000000 0.000000 -7.681730 -0.403755 -24.952862 25.169924 19.346383 105.275896 -0.098689 -9.216927 11.172744 0.010168 -0.609130 -1.674062 0.000000 0.000000 0.000000 33.765641 14.149517 -18.366941 -7.807227 -15.975647 51.865439 -1.662253 -3.387124 -25.767236 -0.061797 1.554487 -4.276830 3.789184 0.561104 20.544605 2.802940 1.934490 0.794905 0.371890 0.800154 -10.655453 -1.251903 -3.083991 -21.689523 1.143799 -4.020778 13.773367 0.067411 -1.857996 7.839402 0.000000 0.000000 0.000000 1.914285 18.106839 -44.397235 113.557439 -57.795578 80.250355 19.283077 -32.790984 -7.004783 0.000000 0.000000 0.000000 -7.125000 0.000000 0.000000 -6.378303 37.328501 -1.209966 0.000000 0.000000 0.000000 -3.980269 9.653537 56.806148 -125.505658 -54.653999 -90.196745 -32.908099 -41.662373 -38.646570 0.000000 0.000000 0.000000 7.125000 0.000000 0.000000 1.030970 -13.615431 1.247180
0.078081 16.962554 -32.875498 -5.036850 -3.506073 2.653640 0.000000 0.000000 0.000000 -7.510095 -0.099983 -25.882043 25.227286 19.331624 105.449044 -0.104184 -9.145390 10.929466 0.006451 -0.485195 -1.333394 0.000000 0.000000 0.000000 33.867412 14.412225 -17.957762 -7.810041 -15.977771 51.875659 -1.689779 -3.467685 -26.004754 -0.077246 1.764080 -4.854645 3.689775 0.807807 20.343108 2.724209 2.207285 0.932457 0.263085 0.935981 -10.383029 -1.052105 -3.172436 -22.331734 1.146798 -4.193766 13.836250 0.004767 -1.924145 7.964904 0.000000 0.000000 0.000000 2.247628 18.010059 -44.598653 113.545308 -57.797967 80.240082 19.292766 -32.922776 -7.141725 0.000000 0.000000 0.000000 -7.125000 0.000000 0.000000 -6.387355 37.472902 -1.189049 0.000000 0.000000 0.000000 -3.789204 8.894956 56.773472 -125.685788 -54.593398 -90.343667 -33.052048 -41.908810 -39.241054 0.000000 0.000000 0.000000 7.125000 0.000000 0.000000 1.116654 -14.269747 1.359170
0.073328 16.954754 -32.759037 -5.029666 -3.657484 2.875159 0.000000 0.000000 0.000000 -7.365867 0.007399 -26.822133 25.273777 19.319645 105.589393 -0.105534 -9.026161 10.702705 0.003378 -0.368104 -1.011552 0.000000 0.000000 0.000000 33.945710 14.551919 -17.612013 -7.802465 -15.971975 51.847995 -1.714946 -3.584710 -26.242525 -0.094567 1.973692 -5.433127 3.638702 0.970959 20.073164 2.669829 2.382583 1.019673 0.182874 1.023955 -10.130137 -0.927356 -3.248120 -22.782762 1.163616 -4.331059 13.865636 -0.033701 -1.977556 8.049007 0.000000 0.000000 0.000000 2.506112 18.031456 -44.754936 113.578257 -57.791356 80.267928 19.323147 -33.057262 -7.290693 0.000000 0.000000 0.000000 -7.125000 0.000000 0.000000 -6.380532 37.631398 -1.163203 0.000000 0.000000 0.000000 -3.678476 8.253953 56.806099 -125.909106 -54.517047 -90.525520 -33.204151 -42.211717 -39.930096 0.000000 0.000000 0.000000 7.125000 0.000000 0.000000 1.230914 -15.018656 1.510100
0.076885 16.953268 -32.629846 -4.996433 -3.229405 3.174073 0.000000 0.000000 0.000000 -7.312009 -0.532776 -27.798191 25.284421 19.316832 105.621591 -0.093217 -8.749676 10.530407 0.002422 -0.273580 -0.751790 0.000000 0.000000 0.000000 33.946613 14.285999 -17.475417 -7.760631 -15.940069 51.695419 -1.732332 -3.821962 -26.481131 -0.118058 2.183365 -6.013809 3.747003 0.858624 19.577530 2.695736 2.236404 0.940916 0.196942 0.954143 -9.941647 -1.050070 -3.281725 -22.603403 1.225995 -4.350648 13.784569 0.007549 -1.988970 7.996608 0.000000 0.000000 0.000000 2.517765 18.442521 -44.762395 113.759846 -57.755070 80.421459 19.421759 -33.200627 -7.479317 0.000000 0.000000 0.000000 -7.125000 0.000000 0.000000 -6.321364 37.836373 -1.121104 0.000000 0.000000 0.000000 -3.832645 8.000642 57.054049 -126.274833 -54.388758 -90.822550 -33.383139 -42.700821 -40.930920 0.000000 0.000000 0.000000 7.125000 0.000000 0.000000 1.439392 -16.079470 1.789425
0.080442 16.951781 -32.500655 -4.963200 -2.801326 3.472988 0.000000 0.000000 0.000000 -7.258150 -1.072952 -28.774250 25.295065 19.314018 105.653789 -0.080901 -8.473191 10.358108 0.001466 -0.179056 -0.492028 0.000000 0.000000 0.000000 33.947515 14.020079 -17.338820 -7.718798 -15.908163 51.542842 -1.749719 -4.059215 -26.719737 -0.141550 2.393038 -6.594491 3.855303 0.746289 19.081896 2.721643 2.090225 0.862159 0.211011 0.884332 -9.753156 -1.172784 -3.315330 -22.424043 1.288374 -4.370238 13.703503 0.048798 -2.000384 7.944210 0.000000 0.000000 0.000000 2.529418 18.853585 -44.769854 113.941435 -57.718784 80.574991 19.520371 -33.343993 -7.667940 0.000000 0.000000 0.000000 -7.125000 0.000000 0.000000 -6.262197 38.041348 -1.079005 0.000000 0.000000 0.000000 -3.986814 7.747330 57.301998 -126.640559 -54.260470 -91.119580 -33.562127 -43.189925 -41.931744 0.000000 0.000000 0.000000 7.125000 0.000000 0.000000 1.647871 -17.140284 2.068750
0.083998 16.950295 -32.371464 -4.929966 -2.373247 3.771903 0.000000 0.000000 0.000000 -7.204292 -1.613127 -29.750308 25.305710 19.311204 105.685987 -0.068584 -8.196706 10.185809 0.000511 -0.084532 -0.232266 0.000000 0.000000 0.000000 33.948418 13.754159 -17.202223 -7.676964 -15.876257 51.390266 -1.767105 -4.296467 -26.958343 -0.165042 2.602711 -7.175173 3.963604 0.633953 18.586262 2.747550 1.944046 0.783403 0.225079 0.814521 -9.564665 -1.295498 -3.348935 -22.244684 1.350753 -4.389828 13.622437 0.090048 -2.011798 7.891812 0.000000 0.000000 0.000000 2.541070 19.264649 -44.777313 114.123024 -57.682498 80.728523 19.618983 -33.487358 -7.856564 0.000000 0.000000 0.000000 -7.125000 0.000000 0.000000 -6.203030 38.246322 -1.036906 0.000000 0.000000 0.000000 -4.140983 7.494018 57.549948 -127.006286 -54.132182 -91.416610 -33.741115 -43.679029 -42.932568 0.000000 0.000000 0.000000 7.125000 0.000000 0.000000 1.856349 -18.201098 2.348075
0.086159 16.949772 -32.247277 -4.911162 -2.038650 3.976952 0.000000 0.000000 0.000000 -7.143985 -2.039671 -30.618072 25.301826 19.312220 105.674267 -0.066905 -7.979508 9.831500 0.006128 -0.207301 -0.570027 0.000000 0.000000 0.000000 33.987284 13.515998 -16.957332 -7.636081 -15.844795 51.240729 -1.782775 -4.505009 -27.171871 -0.186248 2.775013 -7.653193 4.033805 0.563671 18.307179 2.779153 1.857277 0.717531 0.247449 0.772592 -9.482814 -1.405339 -3.387457 -22.185034 1.400024 -4.417633 13.613382 0.121316 -2.026288 7.883010 0.000000 0.000000 0.000000 2.559926 19.635093 -44.805575 114.308048 -57.644903 80.884847 19.685536 -33.662523 -8.000935 0.000000 0.000000 0.000000 -7.125000 0.000000 0.000000 -6.165408 38.402721 -1.006333 0.000000 0.000000 0.000000 -4.268319 7.232244 57.735338 -127.420366 -53.981891 -91.751629 -33.788904 -44.133629 -43.652266 0.000000 0.000000 0.000000 7.125000 0.000000 0.000000 2.048928 -18.932532 2.605114
0.086717 16.950356 -32.128836 -4.908933 -1.811432 4.074184 0.000000 0.000000 0.000000 -7.076271 -2.335692 -31.361443 25.281254 19.317635 105.612101 -0.077443 -7.830409 9.268125 0.019293 -0.579663 -1.594130 0.000000 0.000000 0.000000 34.069757 13.309722 -16.588049 -7.596292 -15.813845 51.094682 -1.796471 -4.680572 -27.356592 -0.204829 2.904390 -8.013292 4.060243 0.541692 18.276839 2.817297 1.838749 0.666460 0.279356 0.762691 -9.523453 -1.500394 -3.431627 -22.262888 1.434240 -4.454874 13.687042 0.141118 -2.044312 7.924287 0.000000 0.000000 0.000000 2.587054 19.958880 -44.857735 114.497016 -57.605803 81.044378 19.715266 -33.874213 -8.094477 0.000000 0.000000 0.000000 -7.125000 0.000000 0.000000 -6.152534 38.503324 -0.988999 0.000000 0.000000 0.000000 -4.364834 6.960750 57.848867 -127.889986 -53.806328 -92.130282 -33.685992 -44.548595 -44.049050 0.000000 0.000000 0.000000 7.125000 0.000000 0.000000 2.223244 -19.285623 2.836553
0.087274 16.950940 -32.010396 -4.906703 -1.584213 4.171416 0.000000 0.000000 0.000000 -7.008556 -2.631714 -32.104815 25.260682 19.323050 105.549934 -0.087981 -7.681310 8.704750 0.032459 -0.952026 -2.618233 0.000000 0.000000 0.000000 34.152230 13.103447 -16.218765 -7.556502 -15.782894 50.948636 -1.810168 -4.856136 -27.541314 -0.223410 3.033766 -8.373392 4.086681 0.519714 18.246499 2.855441 1.820221 0.615389 0.311262 0.752790 -9.564092 -1.595449 -3.475796 -22.340743 1.468455 -4.492116 13.760703 0.160920 -2.062335 7.965563 0.000000 0.000000 0.000000 2.614182 20.282666 -44.909894 114.685984 -57.566703 81.203909 19.744995 -34.085903 -8.188019 0.000000 0.000000 0.000000 -7.125000 0.000000 0.000000 -6.139660 38.603927 -0.971666 0.000000 0.000000 0.000000 -4.461349 6.689255 57.962397 -128.359607 -53.630764 -92.508936 -33.583080 -44.963561 -44.445833 0.000000 0.000000 0.000000 7.125000 0.000000 0.000000 2.397560 -19.638715 3.067992
